<svg width="24" height="24" viewBox="0 0 24 24" fill="none" xmlns="http://www.w3.org/2000/svg">
<path fill-rule="evenodd" clip-rule="evenodd" d="M11.3698 0.830078L11.9998 3.28008L12.6298 0.830078H11.3698ZM15.4198 1.84008L14.2398 1.45008L13.8998 3.95008L15.4198 1.85008V1.84008ZM9.75982 1.45008L8.56982 1.85008L10.0998 3.95008L9.75982 1.45008ZM20.2498 11.8401L17.7498 7.44008C17.6468 7.27548 17.5111 7.13377 17.3512 7.02368C17.1912 6.9136 17.0104 6.8375 16.8198 6.80008C16.6892 6.77659 16.555 6.78046 16.426 6.81144C16.2969 6.84243 16.1756 6.89985 16.0698 6.98008C15.8198 7.17008 15.6698 7.40008 15.6198 7.68008L15.6698 7.73008L18.0198 11.8601C19.6398 14.8101 19.1198 17.6401 16.4998 20.2601L16.0398 20.6701C17.0398 20.5401 17.9698 20.0701 18.8198 19.2201C21.5198 16.5201 21.3298 13.6301 20.2498 11.8401ZM12.0698 9.01008C11.9398 8.32008 12.1498 7.71008 12.6398 7.24008L10.5798 5.17008C10.3708 4.96726 10.0911 4.85382 9.79982 4.85382C9.5086 4.85382 9.22882 4.96726 9.01982 5.17008C8.86982 5.32008 8.79982 5.51008 8.74982 5.70008L12.0698 9.00008V9.01008Z" fill="#FF6400"/>
<path fill-rule="evenodd" clip-rule="evenodd" d="M14.7402 8.30068C14.6584 8.17252 14.5516 8.06217 14.4261 7.97626C14.3007 7.89035 14.1592 7.83063 14.0102 7.80068C13.9177 7.78395 13.8226 7.78688 13.7313 7.80928C13.64 7.83167 13.5544 7.87304 13.4802 7.93068C13.3302 8.05068 12.8902 8.39068 13.2802 9.23068L14.4602 11.7307C14.5179 11.7883 14.5589 11.8605 14.5788 11.9395C14.5987 12.0186 14.5967 12.1016 14.5731 12.1797C14.5495 12.2577 14.5051 12.3279 14.4447 12.3827C14.3843 12.4374 14.3101 12.4748 14.2302 12.4907C14.1337 12.5084 14.0341 12.4935 13.9472 12.4482C13.8602 12.4029 13.7909 12.3299 13.7502 12.2407L7.60017 6.11068C7.52902 6.0183 7.43899 5.94216 7.33609 5.88733C7.23318 5.8325 7.11977 5.80025 7.00341 5.79272C6.88705 5.7852 6.77043 5.80258 6.66132 5.8437C6.55221 5.88482 6.45312 5.94874 6.37068 6.03119C6.28823 6.11364 6.22431 6.21272 6.18319 6.32183C6.14207 6.43094 6.12469 6.54756 6.13221 6.66392C6.13974 6.78028 6.17199 6.8937 6.22682 6.9966C6.28164 7.09951 6.35779 7.18954 6.45017 7.26068L10.0902 10.9007C10.1417 10.9394 10.1844 10.9887 10.2153 11.0453C10.2461 11.1019 10.2645 11.1645 10.269 11.2288C10.2736 11.2931 10.2643 11.3576 10.2418 11.418C10.2192 11.4784 10.184 11.5333 10.1384 11.5789C10.0928 11.6245 10.0379 11.6597 9.97752 11.6823C9.91712 11.7048 9.85258 11.7141 9.78827 11.7095C9.72396 11.705 9.66138 11.6866 9.60477 11.6558C9.54817 11.6249 9.49885 11.5823 9.46017 11.5307L5.83017 7.90068L4.80017 6.86068C4.66499 6.72918 4.4886 6.6483 4.30075 6.63166C4.11289 6.61502 3.92504 6.66364 3.76885 6.76934C3.61265 6.87503 3.49767 7.03133 3.44326 7.21191C3.38886 7.39248 3.39836 7.58629 3.47017 7.76068C3.51017 7.86068 3.57017 7.94068 3.65017 8.02068L4.67017 9.05068L8.32017 12.6907C8.37397 12.7422 8.41383 12.8065 8.43601 12.8776C8.45818 12.9486 8.46195 13.0242 8.44697 13.0971C8.43198 13.1701 8.39872 13.238 8.35031 13.2946C8.3019 13.3512 8.23992 13.3946 8.17017 13.4207C8.08927 13.4535 8.00043 13.4615 7.91495 13.4437C7.82947 13.4259 7.75123 13.3831 7.69017 13.3207L4.05017 9.68068C3.93609 9.56652 3.79087 9.48855 3.63268 9.45656C3.47449 9.42456 3.31038 9.43996 3.1609 9.50081C3.01143 9.56167 2.88323 9.66529 2.79238 9.79868C2.70153 9.93207 2.65206 10.0893 2.65017 10.2507C2.64957 10.3585 2.67049 10.4653 2.7117 10.5649C2.75291 10.6645 2.81359 10.7548 2.89017 10.8307L4.42017 12.3707L6.72017 14.6507C6.79478 14.7372 6.8337 14.8488 6.82904 14.9629C6.82439 15.0771 6.7765 15.1852 6.6951 15.2653C6.6137 15.3454 6.50487 15.3916 6.39067 15.3945C6.27648 15.3973 6.16548 15.3566 6.08017 15.2807L3.80017 13.0007C3.68745 12.8851 3.54275 12.8058 3.38465 12.773C3.22654 12.7402 3.06223 12.7554 2.91283 12.8167C2.76343 12.8779 2.63575 12.9824 2.54619 13.1168C2.45662 13.2512 2.40925 13.4092 2.41017 13.5707C2.41017 13.7907 2.50017 14.0007 2.65017 14.1507L7.05017 18.5507C9.85017 21.3507 12.5502 22.6707 15.7302 19.4907C18.0002 17.2107 18.4402 14.8907 17.0702 12.3907L14.7502 8.31068L14.7402 8.30068Z" fill="#FF6400"/>
</svg>
