<svg width="32" height="32" viewBox="0 0 32 32" fill="none" xmlns="http://www.w3.org/2000/svg">
<g clip-path="url(#clip0_2223_1145)">
<path d="M27.2784 10.2392C25.3068 11.4587 24.0891 13.5494 24.0891 15.8724C24.0891 18.4857 25.6548 20.8667 28.0322 21.854C27.5683 23.3639 26.8725 24.7577 26.0027 26.0353C24.727 27.8356 23.3933 29.694 21.4217 29.694C19.4502 29.694 18.8703 28.5325 16.5509 28.5325C14.2894 28.5325 13.4776 29.7521 11.622 29.7521C9.76643 29.7521 8.49073 28.0679 7.04106 25.9772C5.12751 23.0735 4.02576 19.7052 3.96777 16.1627C3.96777 10.4134 7.67892 7.33546 11.3901 7.33546C13.3616 7.33546 14.9852 8.61309 16.2029 8.61309C17.3627 8.61309 19.2183 7.27739 21.4217 7.27739C23.7412 7.21931 25.9447 8.32272 27.2784 10.2392ZM20.378 4.83828C21.3638 3.6768 21.8856 2.22494 21.9436 0.715018C21.9436 0.540796 21.9436 0.3085 21.8856 0.134277C20.204 0.3085 18.6384 1.12154 17.5366 2.39917C16.5509 3.50257 15.971 4.89635 15.913 6.40628C15.913 6.5805 15.913 6.75472 15.971 6.92894C16.087 6.92894 16.2609 6.98702 16.3769 6.98702C17.9425 6.87087 19.3922 6.05783 20.378 4.83828Z" fill="black"/>
</g>
<defs>
<clipPath id="clip0_2223_1145">
<rect width="31.7333" height="31.7333" fill="white" transform="translate(0.133301 0.133789)"/>
</clipPath>
</defs>
</svg>
