<svg width="20" height="20" viewBox="0 0 20 20" fill="none" xmlns="http://www.w3.org/2000/svg">
<path d="M8.19502 2.55828C9.07509 1.31092 10.9249 1.31092 11.805 2.55828C12.2966 3.2551 13.1454 3.60669 13.9858 3.4616C15.4901 3.20188 16.7981 4.50991 16.5384 6.01422C16.3933 6.85458 16.7449 7.70339 17.4417 8.19502C18.6891 9.07509 18.6891 10.9249 17.4417 11.805C16.7449 12.2966 16.3933 13.1454 16.5384 13.9858C16.7981 15.4901 15.4901 16.7981 13.9858 16.5384C13.1454 16.3933 12.2966 16.7449 11.805 17.4417C10.9249 18.6891 9.07509 18.6891 8.19502 17.4417C7.70339 16.7449 6.85458 16.3933 6.01422 16.5384C4.50991 16.7981 3.20188 15.4901 3.4616 13.9858C3.60669 13.1454 3.2551 12.2966 2.55828 11.805C1.31092 10.9249 1.31092 9.07509 2.55828 8.19502C3.2551 7.70339 3.60669 6.85458 3.4616 6.01422C3.20188 4.50991 4.50991 3.20188 6.01422 3.4616C6.85458 3.60669 7.70339 3.2551 8.19502 2.55828Z" fill="#0066FF"/>
<path d="M7.25 10.25L9.25 12.25L12.75 8" stroke="white" stroke-width="1.25" stroke-linecap="round" stroke-linejoin="round"/>
</svg>
