<svg width="24" height="24" viewBox="0 0 24 24" fill="none" xmlns="http://www.w3.org/2000/svg">
<path d="M12.0003 13.5006C11.6489 13.5006 11.3574 13.2091 11.3574 12.8577V8.3577C11.3574 8.00627 11.6489 7.71484 12.0003 7.71484C12.3517 7.71484 12.6431 8.00627 12.6431 8.3577V12.8577C12.6431 13.2091 12.3517 13.5006 12.0003 13.5006Z" fill="#161616"/>
<path d="M12.0002 16.5005C11.7688 16.5005 11.5545 16.4148 11.3916 16.2519C11.3145 16.1662 11.2545 16.0719 11.2031 15.969C11.1602 15.8662 11.1431 15.7548 11.1431 15.6433C11.1431 15.4205 11.2373 15.1976 11.3916 15.0347C11.7088 14.7176 12.2917 14.7176 12.6088 15.0347C12.7631 15.1976 12.8574 15.4205 12.8574 15.6433C12.8574 15.7548 12.8316 15.8662 12.7888 15.969C12.7459 16.0719 12.6859 16.1662 12.6088 16.2519C12.4459 16.4148 12.2316 16.5005 12.0002 16.5005Z" fill="#161616"/>
<path d="M12.0002 21.2141C11.4259 21.2141 10.8431 21.0684 10.3288 20.7684L5.23736 17.8284C4.20879 17.2284 3.56592 16.1226 3.56592 14.9312V9.06839C3.56592 7.87696 4.20879 6.77124 5.23736 6.17124L10.3288 3.23125C11.3574 2.63125 12.6345 2.63125 13.6717 3.23125L18.7631 6.17124C19.7917 6.77124 20.4345 7.87696 20.4345 9.06839V14.9312C20.4345 16.1226 19.7917 17.2284 18.7631 17.8284L13.6717 20.7684C13.1574 21.0684 12.5745 21.2141 12.0002 21.2141ZM12.0002 4.07123C11.6488 4.07123 11.2888 4.16553 10.9716 4.34553L5.88021 7.28552C5.24593 7.65409 4.85163 8.33125 4.85163 9.06839V14.9312C4.85163 15.6598 5.24593 16.3455 5.88021 16.7141L10.9716 19.6541C11.6059 20.0227 12.3945 20.0227 13.0202 19.6541L18.1117 16.7141C18.7459 16.3455 19.1402 15.6684 19.1402 14.9312V9.06839C19.1402 8.33982 18.7459 7.65409 18.1117 7.28552L13.0202 4.34553C12.7117 4.16553 12.3517 4.07123 12.0002 4.07123Z" fill="#161616"/>
</svg>
