<svg width="20" height="20" viewBox="0 0 20 20" fill="none" xmlns="http://www.w3.org/2000/svg">
<g clip-path="url(#clip0_2223_999)">
<path d="M19.6004 10.001C19.6004 4.69906 15.3023 0.400997 10.0004 0.400997C4.69845 0.400997 0.400391 4.69906 0.400391 10.001C0.400391 14.7926 3.91097 18.7642 8.50039 19.4844V12.776H6.06289V10.001H8.50039V7.886C8.50039 5.48 9.9336 4.151 12.1265 4.151C13.1768 4.151 14.2754 4.3385 14.2754 4.3385V6.701H13.0649C11.8723 6.701 11.5004 7.441 11.5004 8.20019V10.001H14.1629L13.7373 12.776H11.5004V19.4844C16.0898 18.7642 19.6004 14.7926 19.6004 10.001Z" fill="#1877F2"/>
<path d="M13.7369 12.7756L14.1625 10.0006H11.5V8.19978C11.5 7.44059 11.8719 6.70059 13.0645 6.70059H14.275V4.33809C14.275 4.33809 13.1764 4.15059 12.1261 4.15059C9.93321 4.15059 8.5 5.47959 8.5 7.88559V10.0006H6.0625V12.7756H8.5V19.484C8.98876 19.5606 9.4897 19.6006 10 19.6006C10.5103 19.6006 11.0112 19.5606 11.5 19.484V12.7756H13.7369Z" fill="white"/>
</g>
<defs>
<clipPath id="clip0_2223_999">
<rect width="19.2" height="19.2" fill="white" transform="translate(0.400391 0.400391)"/>
</clipPath>
</defs>
</svg>
