<svg width="114" height="24" viewBox="0 0 114 24" fill="none" xmlns="http://www.w3.org/2000/svg">
<path fill-rule="evenodd" clip-rule="evenodd" d="M114 7.68539V22.9213H108.137V7.68539C108.137 7.34831 107.87 7.14607 107.604 7.14607H98.076C97.7428 7.14607 97.5429 7.41573 97.5429 7.68539V22.9213H91.6797V7.68539C91.6797 4.38202 94.3448 1.61798 97.6762 1.61798H108.07C111.335 1.61798 114 4.38202 114 7.68539ZM89.8141 12.0674C89.8141 14.8989 87.4822 17.2584 84.6838 17.2584C83.9509 17.2584 83.2846 17.1236 82.685 16.8539C82.9515 17.4607 83.0847 18.1348 83.0847 18.809C83.0847 21.6404 80.8194 24 78.021 24H77.9544C75.156 24 72.8241 21.6404 72.8241 18.809C72.8241 18.1348 72.9573 17.4607 73.1572 16.8539C72.5576 17.1236 71.9579 17.2584 71.225 17.2584C69.3594 17.2584 67.6937 16.2472 66.8276 14.6966C66.3612 13.8876 66.0947 13.0112 66.0947 12C66.0947 11.0562 66.3612 10.1124 66.8276 9.37079C67.6937 7.88764 69.3594 6.8764 71.225 6.8764C71.8913 6.8764 72.5576 7.01124 73.1572 7.2809C72.8907 6.67416 72.7574 6 72.7574 5.25843C72.7574 2.42697 75.0894 0.0674157 77.8878 0.0674157H77.9544C80.7528 0.0674157 83.0181 2.42697 83.0181 5.25843C83.0181 6 82.8849 6.67416 82.6183 7.2809C83.218 7.01124 83.9509 6.8764 84.6838 6.8764C87.5488 6.8764 89.8141 9.16854 89.8141 12.0674ZM79.5535 12C79.5535 11.2584 79.6867 10.5843 79.9532 9.97753C79.3536 10.2472 78.6873 10.382 77.9544 10.382H77.8878C77.2215 10.382 76.5552 10.2472 75.9556 9.97753C76.2221 10.5843 76.3553 11.3258 76.3553 12C76.3553 12.6742 76.2221 13.3483 75.9556 13.9551C76.5552 13.6854 77.2215 13.5506 77.8878 13.5506H77.9544C78.6207 13.5506 79.287 13.6854 79.8866 13.9551C79.6867 13.4157 79.5535 12.7416 79.5535 12ZM67.294 7.07865V1.75281H45.4401V7.07865H53.502V22.9888H59.5652V7.07865H67.294ZM0 22.9888H6.12975V1.68539L0 1.75281V22.9888ZM13.6587 12.1348L24.7855 3.10112L26.4512 1.75281H17.8562L9.32788 8.76404C8.86148 9.16854 8.46172 9.50562 8.06195 10.0449C7.59556 10.6517 7.32905 11.3258 7.26242 11.9326C7.19579 12.7416 7.39567 13.5506 7.86207 14.2921C8.26183 14.9663 8.6616 15.3034 9.26125 15.7753L17.7896 22.9888H26.9176L24.7855 21.236L13.6587 12.1348ZM45.8399 9.77528C46.173 10.4494 46.3063 11.191 46.3063 12C46.3063 12.809 46.1064 13.5506 45.8399 14.2247C45.0403 15.9775 43.2414 17.191 41.1759 17.191C40.443 17.191 39.7767 17.0562 39.1771 16.7865C39.4436 17.3933 39.5769 18.0674 39.5769 18.7416C39.5769 21.573 37.3115 23.9326 34.4465 23.9326H34.3799C31.5815 23.9326 29.2496 21.573 29.2496 18.7416C29.2496 18.0674 29.3828 17.3933 29.6493 16.7865C29.0497 17.0562 28.3834 17.191 27.7171 17.191C26.5845 17.191 25.5184 16.7865 24.7189 16.1798C23.4529 15.236 22.5868 13.6854 22.5868 12C22.5868 10.3146 23.4529 8.76405 24.7189 7.82023C25.585 7.21348 26.6511 6.80899 27.7171 6.80899C28.3834 6.80899 29.0497 6.94382 29.6493 7.21348C29.3828 6.60674 29.2496 5.86517 29.2496 5.19101C29.2496 2.35955 31.5815 0 34.3799 0H34.4465C37.2449 0 39.5769 2.35955 39.5769 5.19101C39.5769 5.93258 39.4436 6.60674 39.1771 7.21348C39.7767 6.94382 40.5096 6.80899 41.2425 6.80899C43.2414 6.80899 45.0403 8.02247 45.8399 9.77528ZM36.1122 12C36.1122 11.2584 36.2455 10.5843 36.512 9.97753C35.9123 10.2472 35.2461 10.382 34.5131 10.382H34.4465C33.7802 10.382 33.114 10.2472 32.5143 9.97753C32.7808 10.5843 32.9141 11.3258 32.9141 12C32.9141 12.6742 32.7808 13.3483 32.5143 13.9551C33.114 13.6854 33.7136 13.5506 34.4465 13.5506H34.5131C35.1794 13.5506 35.8457 13.6854 36.4454 13.9551C36.2455 13.3483 36.1122 12.7416 36.1122 12Z" fill="#231F20"/>
</svg>
