<svg width="16" height="16" viewBox="0 0 16 16" fill="none" xmlns="http://www.w3.org/2000/svg">
<path d="M3.60353 15.9907H0.240754V5.33073H3.60353V15.9907ZM1.91981 3.85349C1.53836 3.85135 1.1661 3.73649 0.85 3.52341C0.5339 3.31032 0.288134 3.00857 0.143716 2.65622C-0.000700879 2.30388 -0.0372958 1.91674 0.0385495 1.54366C0.114395 1.17058 0.299281 0.828285 0.569875 0.559969C0.84047 0.291653 1.18464 0.109344 1.55896 0.0360503C1.93328 -0.0372439 2.32097 0.00176203 2.67309 0.148145C3.02522 0.294528 3.326 0.541727 3.53749 0.858545C3.74897 1.17536 3.86167 1.5476 3.86137 1.92828C3.86497 2.18315 3.81712 2.43613 3.72066 2.67214C3.6242 2.90816 3.48112 3.12238 3.29994 3.30203C3.11876 3.48169 2.90319 3.6231 2.66608 3.71785C2.42897 3.81259 2.17517 3.85872 1.91981 3.85349ZM15.9984 16H12.6372V10.1763C12.6372 8.45881 11.9056 7.92868 10.9613 7.92868C9.96408 7.92868 8.98554 8.67892 8.98554 10.2197V16H5.62275V5.33848H8.85662V6.81572H8.90011C9.22474 6.16003 10.3617 5.03931 12.0967 5.03931C13.973 5.03931 16 6.15073 16 9.40592L15.9984 16Z" fill="#0A66C2"/>
</svg>
