<svg width="56" height="36" viewBox="0 0 56 36" fill="none" xmlns="http://www.w3.org/2000/svg">
<path fill-rule="evenodd" clip-rule="evenodd" d="M9.9307 21.3871C9.49841 21.3871 9.15995 21.6895 9.15995 22.1308C9.15995 22.5724 9.50015 22.8731 9.9307 22.8731C10.361 22.8731 10.7015 22.5704 10.7015 22.1308C10.7015 21.6895 10.3627 21.3871 9.9307 21.3871ZM9.9307 22.6605C9.62246 22.6605 9.39382 22.4353 9.39382 22.1308C9.39382 21.8267 9.62072 21.5998 9.9307 21.5998C10.2369 21.5998 10.4673 21.8301 10.4673 22.1308C10.4673 22.4298 10.2349 22.6605 9.9307 22.6605ZM17.4305 18.7858H13.6784L14.1049 12.2641L11.6683 18.7858H8.18408L13.7124 4.04492H17.4198L16.9919 10.6561L19.4747 4.04492H22.9592L17.4305 18.7858ZM17.8832 18.7858L23.4112 4.04492H26.8955L21.3674 18.7858H17.8832Z" fill="black"/>
<path fill-rule="evenodd" clip-rule="evenodd" d="M7.78096 13.7047C2.91209 19.4225 -1.68078 27.0304 2.37608 30.5338C6.30714 33.9289 11.2208 31.9187 14.5711 30.5786C17.9214 29.2384 54.9523 13.1574 54.9523 13.1574C55.3096 12.9787 55.2428 12.7553 54.796 12.8668C54.6158 12.9119 14.4819 23.7885 14.4819 23.7885C9.38901 25.2181 3.58204 22.1023 7.78096 13.7047Z" fill="black"/>
<path fill-rule="evenodd" clip-rule="evenodd" d="M10.0601 22.1832C10.1682 22.178 10.2527 22.1222 10.2527 21.9726C10.2527 21.7797 10.1266 21.7312 9.91601 21.7312H9.61328V22.531H9.81519V22.1905H9.84919L10.0331 22.531H10.2652L10.0601 22.1832ZM9.93053 22.0537H9.81548V21.868H9.91252C9.97208 21.868 10.0403 21.875 10.0403 21.9526C10.0403 22.0357 10.0008 22.0537 9.93053 22.0537ZM44.9536 4C44.5213 4 44.1829 4.30272 44.1829 4.74374C44.1829 5.18504 44.5234 5.48573 44.9536 5.48573C45.3839 5.48573 45.7244 5.18301 45.7244 4.74374C45.7247 4.30272 45.3862 4 44.9536 4ZM44.9536 5.27365C44.6454 5.27365 44.4167 5.0485 44.4167 4.74403C44.4167 4.43985 44.6436 4.21295 44.9536 4.21295C45.2598 4.21295 45.4905 4.44334 45.4905 4.74403C45.4905 5.04298 45.2581 5.27365 44.9536 5.27365Z" fill="black"/>
<path fill-rule="evenodd" clip-rule="evenodd" d="M45.0862 4.7969C45.1943 4.79167 45.2791 4.73589 45.2791 4.58627C45.2791 4.39336 45.1527 4.34485 44.9424 4.34485H44.6396V5.14437H44.8413V4.80416H44.8755L45.0592 5.14437H45.2916L45.0862 4.7969ZM44.9563 4.66733H44.8413V4.48168H44.9386C44.9979 4.48168 45.0664 4.48895 45.0664 4.56652C45.0664 4.64931 45.0266 4.66733 44.9563 4.66733ZM42.6589 6.50285L43.5952 4.0459H32.9638L29.3134 8.46824L30.9987 4.0459H27.4697L21.9858 18.7867H25.4701L27.8114 12.6224L27.9718 18.7867L38.6627 18.7635L39.6804 15.928H35.6157L36.9513 12.3546H40.3013L41.332 9.60737H37.982L39.1305 6.50285H42.6589ZM31.4284 17.8039L31.205 10.121L36.4731 4.337L31.4284 17.8039Z" fill="black"/>
</svg>
