<svg width="120" height="21" viewBox="0 0 120 21" fill="none" xmlns="http://www.w3.org/2000/svg">
<path d="M9.99984 3.29199L11.7305 8.61832H17.3309L12.8001 11.9102L14.5307 17.2365L9.99984 13.9446L5.46899 17.2365L7.19962 11.9102L2.66878 8.61832H8.26921L9.99984 3.29199Z" fill="#FAA72C" stroke="#FAA72C" stroke-width="1.5625" stroke-linecap="round"/>
<path d="M84.9998 3.29199L86.7305 8.61832H92.3309L87.8001 11.9102L89.5307 17.2365L84.9998 13.9446L80.469 17.2365L82.1996 11.9102L77.6688 8.61832H83.2692L84.9998 3.29199Z" stroke="#FAA72C" stroke-width="1.5625" stroke-linecap="round"/>
<path d="M80.4682 17.2365L84.999 13.9446V3.29199L83.2684 8.61832L77.668 8.61832L82.1988 11.9102L80.4682 17.2365Z" fill="#FAA72C" stroke="#FAA72C" stroke-width="1.25" stroke-linecap="round"/>
<path d="M59.9998 3.29199L61.7305 8.61832H67.3309L62.8001 11.9102L64.5307 17.2365L59.9998 13.9446L55.469 17.2365L57.1996 11.9102L52.6688 8.61832H58.2692L59.9998 3.29199Z" fill="#FAA72C" stroke="#FAA72C" stroke-width="1.5625" stroke-linecap="round"/>
<path d="M110 3.29199L111.73 8.61832H117.331L112.8 11.9102L114.531 17.2365L110 13.9446L105.469 17.2365L107.2 11.9102L102.669 8.61832H108.269L110 3.29199Z" stroke="#FAA72C" stroke-width="1.5625" stroke-linecap="round"/>
<path d="M34.9998 3.29199L36.7305 8.61832H42.3309L37.8001 11.9102L39.5307 17.2365L34.9998 13.9446L30.469 17.2365L32.1996 11.9102L27.6688 8.61832H33.2692L34.9998 3.29199Z" fill="#FAA72C" stroke="#FAA72C" stroke-width="1.5625" stroke-linecap="round"/>
</svg>
