<svg width="20" height="14" viewBox="0 0 20 14" fill="none" xmlns="http://www.w3.org/2000/svg">
<path d="M19.1992 2.59818C18.9784 1.81139 18.3278 1.19183 17.5017 0.981557C16.0044 0.599415 10.0004 0.599415 10.0004 0.599415C10.0004 0.599415 3.99639 0.599415 2.49907 0.981557C1.673 1.19183 1.02238 1.81139 0.801598 2.59818C0.400391 4.02417 0.400391 6.99941 0.400391 6.99941C0.400391 6.99941 0.400391 9.97462 0.801598 11.4007C1.02238 12.1874 1.673 12.807 2.49907 13.0174C3.99639 13.3994 10.0004 13.3994 10.0004 13.3994C10.0004 13.3994 16.0044 13.3994 17.5017 13.0174C18.3278 12.807 18.9784 12.1874 19.1992 11.4007C19.6004 9.97462 19.6004 6.99941 19.6004 6.99941C19.6004 6.99941 19.6004 4.02417 19.1992 2.59818Z" fill="#ED1D24"/>
<path d="M8.03711 9.70117L13.0553 7.00001L8.03711 4.29859V9.70117Z" fill="white"/>
</svg>
